<svg id="Layer_1" data-name="Layer 1"
    xmlns="http://www.w3.org/2000/svg" viewBox="0 0 388.69 328.17">
    <defs>
        <style>.cls-1{fill:none;}.cls-1,.cls-2{stroke:#231f20;stroke-miterlimit:10;stroke-width:15px;}.cls-2,.cls-3{fill:#231f20;}</style>
    </defs>
    <path class="cls-1" d="M339.67,208.47c-.85,39.66-18.25,98.76-55.65,110.44-29.27,9.13-40.42-20.24-88.7-18.26-42,1.72-53,24.77-82.61,16.52-32.34-9-47.78-44.36-50.43-50.44,0,0-12.76-29.81-.87-92.17.5-2.63,1.05-5.3,1.45-7.2.34-1.63.58-2.71.58-2.71s.2-1,.42-1.9c3.72-16.54,8.37-29.56,12.33-42.1C88.27,82.4,96,69,99.46,63.28c4.83-7.93,13.7-22.45,26.34-33.24.27-.24.55-.47.83-.7C161,.84,224-.19,263.85,28.78l1.91,1.43c18.35,14,27.59,36,46.08,80,10.47,24.89,18.05,42.93,22.63,59.21A128.36,128.36,0,0,1,339.67,208.47Z"/>
    <path class="cls-1" d="M125.8,30c-12.64,10.79-21.51,25.31-26.34,33.24C96,69,88.27,82.4,76.19,120.65c-4,12.54-8.61,25.56-12.33,42.1-.22.94-.42,1.9-.42,1.9s-.24,1.08-.58,2.71c-21.8,2.85-47.49-15.93-53.76-37.42C-6.35,77,94.9,2.65,118.66,17.77,122,19.92,124.39,24.21,125.8,30Z"/>
    <path class="cls-1" d="M379.6,131.94c-5.45,18.7-25.61,35.35-45.13,37.48-4.58-16.28-12.16-34.32-22.63-59.21-18.49-44-27.73-66-46.08-80l-1.91-1.43c1.43-4.18,3.48-7.29,6.19-9C293.8,4.65,395.06,79,379.6,131.94Z"/>
    <circle class="cls-2" cx="158.36" cy="135.68" r="6.74"/>
    <circle class="cls-2" cx="236.44" cy="135.68" r="6.74"/>
    <path class="cls-2" d="M195.57,252.29c27.14,1,44.62-30.93,39.13-45.22-7.59-19.78-65.52-22.34-74.78-3.48C153.16,217.36,168.07,251.31,195.57,252.29Z"/>
    <path class="cls-3" d="M179.18,252.31S198,264.46,193.36,294h8.43s-.38-26.4,6.09-36.52S179.18,252.31,179.18,252.31Z"/>
</svg>