<svg id="Layer_1" data-name="Layer 1"
    xmlns="http://www.w3.org/2000/svg" viewBox="0 0 388.69 328.17">
    <defs>
        <style>
        .cls-1{fill:#fff;stroke:#231f20;stroke-miterlimit:10;stroke-width:15px;}</style>
    </defs>
    <path class="cls-1" 
    d="M270,19.77c-2.71,1.72-4.76,4.83-6.19,9C224-.19,161,.84,126.63,29.34c-.28.23-.56.46-.83.7-1.41-5.83-3.76-10.12-7.14-12.27C94.9,2.65-6.35,77,9.1,129.94c6.27,21.49,32,40.27,53.76,37.42-.4,1.9-1,4.57-1.45,7.2-11.89,62.36.87,92.17.87,92.17,2.65,6.08,18.09,41.43,50.43,50.44,29.65,8.25,40.58-14.8,82.61-16.52,48.28-2,59.43,27.39,88.7,18.26,37.4-11.68,54.8-70.78,55.65-110.44a128.36,128.36,0,0,0-5.2-39.05c19.52-2.13,39.68-18.78,45.13-37.48C395.06,79,293.8,4.65,270,19.77Z"/>
</svg>